<svg xmlns="http://www.w3.org/2000/svg" width="667" height="619" viewBox="466 129 667 619" version="1.1" style=""><path d="M 580.500 178.106 C 551.731 183.813, 526.607 200.204, 509.113 224.676 C 494.665 244.888, 487.674 267.149, 487.657 293 C 487.643 314.176, 492.004 331.872, 501.688 349.935 C 507.938 361.592, 512.823 368.020, 523.408 378.512 C 531.529 386.561, 546.429 398.026, 547.335 396.923 C 548.488 395.519, 556 381.081, 556 380.268 C 556 379.727, 553.413 377.574, 550.250 375.484 C 536.520 366.414, 521.440 348.293, 514.972 333.094 C 508.794 318.575, 507.540 311.999, 507.519 294 C 507.504 281.019, 507.906 275.901, 509.405 270 C 513.790 252.732, 522.230 237.709, 534.887 224.640 C 550.564 208.454, 569.185 199.372, 591.290 197.131 C 607.205 195.518, 623.217 198.228, 637.673 204.981 C 648.318 209.953, 653.881 213.811, 662.838 222.435 C 678.119 237.148, 685.375 250.846, 690.551 274.750 C 690.819 275.988, 691.378 277, 691.794 277 C 692.210 277, 695.866 273.662, 699.919 269.581 C 708.530 260.913, 708.527 260.938, 702.600 246.401 C 691.914 220.189, 667.832 195.604, 642.534 185.081 C 628.332 179.173, 620.977 177.766, 602.500 177.427 C 593.150 177.255, 583.250 177.561, 580.500 178.106 M 978 178.948 C 940.335 186.954, 907.727 215.982, 895.507 252.383 C 894.128 256.491, 893 260.234, 893 260.700 C 893 261.534, 908.933 278.540, 909.070 277.853 C 914.011 253.088, 921.300 238.610, 936.455 223.455 C 961.609 198.300, 997.478 190.175, 1031.400 201.948 C 1053.801 209.722, 1075.737 230.685, 1085.337 253.492 C 1098.987 285.922, 1095.504 321.139, 1075.826 349.678 C 1069.205 359.280, 1058.773 369.725, 1050.387 375.148 C 1046.874 377.420, 1044 379.604, 1044 380.001 C 1044 380.863, 1051.798 395.181, 1052.841 396.234 C 1054.250 397.656, 1067.614 387.584, 1077.567 377.599 C 1088.226 366.907, 1094.949 357.607, 1101.045 345.123 C 1114.545 317.474, 1116.704 284.805, 1106.954 255.703 C 1102.931 243.697, 1099.798 237.324, 1092.698 226.709 C 1076 201.745, 1049.531 183.972, 1020.989 178.557 C 1009.727 176.421, 989.001 176.609, 978 178.948 M 586.075 215.087 C 557.156 220.761, 533.887 243.186, 525.814 273.162 C 522.694 284.749, 522.704 302.043, 525.839 313.830 C 534.009 344.543, 561.646 369.590, 590.718 372.628 L 596.518 373.235 605.252 364.033 C 610.056 358.972, 614.195 354.493, 614.450 354.081 C 614.704 353.669, 610.317 353.536, 604.700 353.786 C 586.175 354.610, 573.518 349.665, 560.493 336.514 C 548.771 324.679, 543.442 313.062, 542.369 297 C 541.645 286.166, 543.649 276.393, 548.698 266.135 C 553.756 255.857, 565.642 243.776, 575.268 239.126 C 613.988 220.424, 656.880 249.276, 656.983 294.093 C 657.002 302.427, 659.060 309.755, 663.702 318.012 L 666.500 322.989 633.250 356.250 L 600 389.511 600 458.784 L 600 528.057 637.500 546.454 C 658.125 556.572, 675 565.067, 675 565.332 C 675 565.596, 674.212 565.631, 673.250 565.408 C 668.004 564.194, 607.417 559.848, 582.210 558.876 C 555.386 557.843, 550.618 557.951, 552.225 559.558 C 552.531 559.865, 563.294 560.984, 576.141 562.046 C 607.521 564.638, 626.169 566.651, 646.442 569.632 C 662.320 571.968, 681.945 575.612, 682.698 576.364 C 682.882 576.549, 682.532 580.065, 681.920 584.179 L 680.808 591.659 665.654 592.914 C 646.258 594.520, 605.322 599.308, 587.958 602.003 C 571.492 604.558, 526.439 613.479, 523 614.865 L 520.500 615.873 523.500 615.936 C 525.150 615.971, 529.921 615.345, 534.102 614.545 C 571.525 607.384, 633.975 601, 666.604 601 L 680.742 601 681.393 606.250 C 681.751 609.138, 682.303 613.367, 682.620 615.649 C 683.184 619.703, 683.120 619.814, 679.848 620.521 C 672.996 622.001, 642.983 632.400, 627.838 638.542 C 604.474 648.018, 563.102 668.231, 549.504 676.814 C 544.205 680.158, 546.790 680.899, 552.362 677.634 C 559.656 673.359, 590.640 659.146, 606.500 652.799 C 631.900 642.635, 676.029 629.001, 683.532 629 C 685.154 629, 686.281 630.786, 689.118 637.854 L 692.672 646.708 684.618 652.604 C 674.914 659.708, 646.537 687.111, 647.109 688.826 C 647.350 689.549, 650.640 687.446, 655.211 683.646 C 671.294 670.274, 693.735 654.945, 697.088 655.040 C 697.864 655.062, 700.525 657.825, 703 661.180 C 712.080 673.488, 727.083 684.289, 743.885 690.615 C 749.881 692.872, 752.966 694.660, 754.710 696.888 C 757.769 700.797, 768.208 708.303, 774.095 710.826 C 797.492 720.855, 826.457 715.891, 843.046 699.009 C 847.777 694.195, 849.832 692.934, 857.019 690.433 C 873.229 684.791, 888.813 673.070, 900.109 658.025 C 902.579 654.735, 902.867 654.618, 905.535 655.834 C 910.711 658.192, 930.376 671.730, 941.325 680.473 C 947.279 685.227, 952.591 688.970, 953.129 688.790 C 954.679 688.274, 929.380 663.137, 920.107 655.979 C 915.490 652.416, 910.778 648.762, 909.634 647.860 L 907.555 646.221 909.744 641.360 C 910.948 638.687, 912.621 634.761, 913.463 632.636 L 914.993 628.772 919.603 629.463 C 925.453 630.340, 934.944 632.829, 951.912 637.935 C 977.876 645.748, 1005.122 656.648, 1034.887 671.129 C 1045 676.049, 1053.756 679.915, 1054.345 679.718 C 1057.093 678.802, 1007.283 653.353, 979.937 641.702 C 961.139 633.693, 949.597 629.413, 930 623.184 C 917.610 619.246, 917.503 619.185, 917.833 616.355 C 918.015 614.785, 918.465 610.800, 918.833 607.500 L 919.500 601.500 931 601.177 C 958.621 600.402, 1007.177 604.910, 1053.905 612.587 C 1094.886 619.319, 1082.863 614.861, 1037.500 606.504 C 1004.377 600.402, 969.423 595.780, 934.657 592.906 C 925.786 592.172, 919.697 591.240, 919.524 590.589 C 918.999 588.617, 917.259 576.505, 917.464 576.251 C 917.811 575.821, 944.021 571.170, 955 569.590 C 977.681 566.328, 1011.748 562.708, 1031 561.515 C 1036.225 561.191, 1042.507 560.676, 1044.960 560.370 C 1048.714 559.902, 1049.125 559.649, 1047.556 558.771 C 1044.211 556.899, 991.552 559.493, 944.750 563.836 C 934.438 564.792, 926.004 565.333, 926.009 565.038 C 926.019 564.450, 996.376 529.702, 998.620 529.177 C 999.778 528.905, 999.994 517.624, 999.963 459.177 L 999.927 389.500 976.820 366 C 964.111 353.075, 949.253 337.934, 943.802 332.353 L 933.891 322.207 936.859 317.353 C 941.042 310.511, 942.766 304.029, 943.467 292.500 C 944.615 273.627, 949.581 261.671, 961.108 250.029 C 969.410 241.645, 978.849 236.654, 990.897 234.281 C 1010.081 230.501, 1030.633 238.144, 1043.662 253.902 C 1054.118 266.548, 1058.549 279.830, 1057.708 296 C 1057.419 301.560, 1056.351 308.196, 1055.134 312 C 1050.272 327.186, 1038.635 341.055, 1025.046 347.857 C 1014.747 353.012, 1008.024 354.352, 995.305 353.786 L 985.087 353.332 993.029 362.031 C 997.397 366.816, 1001.690 371.327, 1002.568 372.057 C 1005.011 374.084, 1018.521 371.777, 1027.864 367.738 C 1070.499 349.305, 1089.037 299.240, 1068.618 257.675 C 1060.402 240.950, 1048.681 229.198, 1032.439 221.402 C 1021.621 216.208, 1011.948 213.994, 1000.185 214.017 C 988.333 214.041, 979.168 216.171, 968.500 221.382 C 942.327 234.166, 926.619 258.432, 925.375 288 C 924.961 297.842, 924.112 304.109, 922.428 309.766 C 922.220 310.462, 911.153 299.999, 897.833 286.516 L 873.615 262 800.435 262 L 727.254 262 702.950 286.489 C 689.582 299.959, 678.493 310.827, 678.307 310.641 C 676.893 309.226, 674.999 297.262, 674.993 289.701 C 674.976 267.714, 666.909 249.584, 650.170 233.915 C 635.746 220.413, 618.925 213.865, 599.292 214.110 C 594.456 214.170, 588.509 214.610, 586.075 215.087 M 720.682 297.818 L 705.888 312.636 708.002 323.068 C 715.707 361.083, 716.776 364.871, 723.939 379.500 C 730.538 392.976, 749.882 427.990, 754.414 434.658 L 756.607 437.887 774.304 419.522 L 792 401.158 792 342.079 L 792 283 763.737 283 L 735.475 283 720.682 297.818 M 808 342.103 L 808 401.206 825.750 419.442 C 843.109 437.275, 843.537 437.632, 845.165 435.625 C 849.914 429.774, 876.789 379.997, 881.332 368.638 C 883.628 362.896, 892.338 326.110, 893.626 316.710 L 894.207 312.473 879.381 297.736 L 864.554 283 836.277 283 L 808 283 808 342.103 M 670.677 347.823 C 649.529 368.981, 643.183 375.884, 644.184 376.643 C 645.607 377.722, 655.939 383.839, 694 406.133 C 707.475 414.026, 720.258 422.063, 722.407 423.992 C 727.575 428.632, 730.978 436.042, 730.990 442.684 C 730.998 446.771, 731.680 448.961, 734.216 453.040 L 737.431 458.213 744.188 451.014 L 750.944 443.815 745.619 436.157 C 730.472 414.381, 724.425 404.118, 716.360 386.500 C 712.401 377.852, 710.776 371.878, 702.010 333.750 C 700.271 326.188, 698.767 320, 698.668 320 C 698.568 320, 685.972 332.520, 670.677 347.823 M 901.590 320.874 C 901.383 321.218, 898.654 332.525, 895.525 346 C 888.630 375.697, 887.976 377.854, 882.045 390.523 C 875.072 405.418, 865.661 421.185, 854.815 436.140 C 852.167 439.792, 850 443.180, 850 443.669 C 850 444.767, 862.811 457.559, 863.295 456.944 C 866.066 453.422, 868.827 446.424, 869.288 441.755 C 869.952 435.023, 873.056 428.287, 877.404 424.144 C 879.107 422.521, 888.375 416.604, 898 410.994 C 957.448 376.346, 956.978 376.627, 956.719 375.796 C 956.281 374.388, 901.954 320.266, 901.590 320.874 M 937.454 402.312 C 912.740 416.552, 908.041 419.607, 909.524 420.467 C 920.393 426.761, 925.572 440.739, 921.537 452.888 C 919.691 458.445, 913.395 465.710, 908.013 468.493 C 899.962 472.657, 888.140 471.280, 880.254 465.260 C 877.806 463.392, 875.701 462.006, 875.575 462.182 C 875.450 462.357, 874.378 464.114, 873.194 466.086 L 871.040 469.672 876.270 492.094 L 881.500 514.517 889.402 523.509 C 897.519 532.744, 905.622 544.258, 907.935 549.843 C 908.654 551.579, 909.555 553, 909.936 553 C 910.318 553, 911.685 550.013, 912.973 546.363 C 914.839 541.078, 917.173 537.564, 924.433 529.113 C 936.267 515.336, 964.618 481.985, 973.250 471.687 L 980 463.633 979.972 431.067 L 979.945 398.500 973.556 391.845 L 967.167 385.190 937.454 402.312 M 626.221 392.277 L 620 398.554 620 430.924 L 620 463.294 627.728 472.397 C 631.978 477.404, 644.706 492.300, 656.012 505.500 C 685.851 540.338, 684.404 538.293, 689.594 552.986 C 689.929 553.937, 691.275 552.314, 693.328 548.486 C 698.318 539.177, 703.502 531.811, 711.497 522.666 L 718.851 514.254 723.925 492.719 C 726.716 480.875, 729 470.686, 729 470.078 C 729 469.470, 728.008 467.459, 726.796 465.610 L 724.592 462.247 719.723 465.597 C 711.028 471.578, 702.005 472.613, 693.419 468.614 C 674.340 459.731, 671.496 435.039, 688.112 422.541 C 690.256 420.928, 691.670 419.284, 691.255 418.887 C 689.684 417.385, 634.624 386, 633.559 386 C 632.945 386, 629.643 388.825, 626.221 392.277 M 566.607 395.534 C 564.465 400.216, 562.890 404.211, 563.107 404.412 C 563.706 404.968, 582.879 411, 584.047 411 C 584.696 411, 584.966 407.257, 584.785 400.752 L 584.500 390.505 581 389.386 C 579.075 388.771, 575.925 387.987, 574 387.645 L 570.500 387.022 566.607 395.534 M 1022.373 388.476 C 1019.552 389.166, 1016.740 390.043, 1016.123 390.424 C 1014.773 391.258, 1014.548 411, 1015.888 411 C 1017.420 411, 1034.159 405.985, 1036.106 404.943 C 1037.845 404.013, 1037.698 403.420, 1033.758 395.475 C 1031.446 390.814, 1029.092 387.050, 1028.527 387.111 C 1027.962 387.171, 1025.193 387.786, 1022.373 388.476 M 787.976 426.750 C 781.655 433.212, 773.842 441.271, 770.615 444.657 L 764.747 450.814 772.739 469.157 C 777.134 479.246, 784.953 497.733, 790.115 510.240 C 795.277 522.747, 799.739 532.984, 800.031 532.990 C 800.323 532.995, 801.051 531.763, 801.649 530.250 C 805.567 520.343, 831.358 460.228, 833.526 455.949 L 836.184 450.704 818.352 432.852 C 808.545 423.033, 800.284 415, 799.995 415 C 799.705 415, 794.297 420.288, 787.976 426.750 M 752.761 463.413 L 746.022 470.820 747.453 480.160 C 748.240 485.297, 750.938 503, 753.448 519.500 C 759.212 557.386, 759.428 558.542, 760.683 558.296 C 761.461 558.144, 792.678 539.033, 794.881 537.361 C 795.660 536.770, 774.714 487.826, 764.877 467.253 L 759.500 456.006 752.761 463.413 M 832.730 473.250 C 826.195 487.287, 805 535.701, 805 536.591 C 805 537.572, 839.993 559.340, 840.598 558.736 C 840.760 558.573, 843.905 538.559, 847.585 514.259 L 854.276 470.079 847.962 463.539 C 844.490 459.943, 841.344 457, 840.972 457 C 840.599 457, 836.891 464.313, 832.730 473.250 M 620.032 501.297 L 620 520.095 648.655 534.058 C 664.416 541.739, 677.484 547.849, 677.696 547.637 C 677.908 547.426, 672.775 541.431, 666.290 534.317 C 656.354 523.416, 632.045 496.200, 622.687 485.500 L 620.063 482.500 620.032 501.297 M 970.500 493.691 C 965.550 499.167, 955.650 510.364, 948.500 518.573 C 941.350 526.783, 932.643 536.567, 929.150 540.317 C 925.658 544.066, 923.012 547.346, 923.271 547.605 C 923.531 547.864, 934.263 542.858, 947.121 536.480 C 979.920 520.212, 979.160 520.611, 979.627 519.465 C 979.859 518.896, 979.926 510.624, 979.775 501.083 L 979.500 483.736 970.500 493.691 M 861.655 510.500 C 849.960 587.579, 846.776 608.638, 845.857 615 C 845.262 619.125, 844.126 623.534, 843.333 624.797 C 842.540 626.061, 834.266 635.669, 824.946 646.148 C 809.234 663.814, 808 665.483, 808 669.062 C 808 673.601, 807.811 673.525, 827.994 677.106 C 838.707 679.007, 841.406 679.165, 846.937 678.218 C 854.687 676.890, 865.428 671.717, 873.180 665.579 C 879.593 660.500, 889.283 649.350, 888.729 647.687 C 888.528 647.084, 884.569 645.324, 879.932 643.775 C 869.169 640.182, 865.706 636.437, 869.571 632.571 C 871.967 630.176, 875.729 630.682, 884.500 634.579 C 888.900 636.534, 893.065 638.378, 893.757 638.677 C 894.993 639.210, 900 629.515, 900 626.587 C 900 625.276, 894.865 624.255, 879 622.410 C 872.209 621.620, 869 619.739, 869 616.548 C 869 613.226, 871.541 610.998, 875.321 611.008 C 877.070 611.012, 883.875 612.134, 890.445 613.501 C 898.819 615.243, 902.593 615.659, 903.068 614.891 C 903.763 613.766, 905.314 600.883, 904.791 600.579 C 904.631 600.486, 897.750 600.706, 889.500 601.069 C 880.020 601.486, 873.679 601.355, 872.269 600.713 C 868.119 598.822, 868.140 592.757, 872.301 591.368 C 873.511 590.965, 881.362 590.740, 889.750 590.870 L 905 591.106 904.974 588.303 C 904.946 585.205, 901.484 569.151, 900.669 568.336 C 900.386 568.053, 896.857 569.821, 892.827 572.266 C 877.540 581.539, 872.197 583.105, 869.980 578.962 C 867.837 574.958, 869.733 573.148, 883.077 566.461 C 891.203 562.389, 896 559.417, 896 558.453 C 896 554.420, 887.410 541.863, 875.460 528.426 C 868.645 520.764, 868.192 519.947, 866.576 512.426 C 863.577 498.469, 863.486 498.433, 861.655 510.500 M 734.144 510.792 C 731.934 520.690, 731.777 520.999, 725.321 528.184 C 721.706 532.208, 717.263 537.306, 715.448 539.513 C 711.717 544.050, 704 556.895, 704 558.570 C 704 559.176, 709.288 562.293, 715.750 565.498 C 722.212 568.703, 728.288 571.997, 729.250 572.818 C 733.627 576.550, 729.056 583.113, 723.540 581.015 C 721.104 580.089, 712.372 575.257, 703.255 569.789 L 700.010 567.843 698.924 570.672 C 697.980 573.131, 695.005 588.032, 695.001 590.323 C 695.001 590.776, 702.354 591.001, 711.343 590.823 C 729.684 590.461, 731.336 590.935, 730.801 596.408 C 730.325 601.277, 727.721 601.888, 711 601.050 C 703.025 600.650, 696.190 600.588, 695.811 600.911 C 695.128 601.494, 696.431 614.765, 697.251 615.585 C 697.485 615.818, 703.211 614.883, 709.976 613.505 C 727.962 609.842, 731 610.209, 731 616.045 C 731 619.862, 728.323 621.646, 721.500 622.377 C 706.955 623.936, 700 625.266, 700 626.491 C 700 627.901, 704.757 639, 705.361 639 C 705.574 639, 709.865 637.172, 714.898 634.938 C 725.701 630.143, 729.925 629.959, 731.414 634.220 C 732.808 638.207, 730.253 640.426, 720.635 643.581 C 716.161 645.048, 712.153 646.562, 711.729 646.945 C 709.705 648.775, 722.998 663.149, 732.622 669.537 C 747.012 679.088, 754.207 680.230, 775.874 676.398 L 791.831 673.577 792.279 670.038 C 792.526 668.092, 792.451 665.988, 792.114 665.362 C 791.776 664.736, 784.943 656.861, 776.928 647.862 C 768.913 638.863, 760.932 629.873, 759.192 627.885 C 756.062 624.307, 755.972 623.896, 750.593 588.885 C 747.603 569.423, 743.514 542.475, 741.507 529 C 739.501 515.525, 737.529 503.649, 737.126 502.608 C 736.618 501.296, 735.705 503.804, 734.144 510.792 M 792.500 553.639 C 787.041 556.419, 769.352 566.168, 764.401 569.125 L 761.302 570.977 763.151 583.238 C 765.934 601.686, 765.252 600.247, 770.783 599.332 C 780.717 597.689, 790.186 599.616, 796.740 604.615 L 800.117 607.191 803.808 604.642 C 811.825 599.106, 820.648 597.338, 830.500 599.294 L 834.500 600.088 836.728 585.355 C 837.953 577.252, 838.853 570.567, 838.728 570.499 C 838.603 570.431, 832.355 566.913, 824.845 562.681 C 801.840 549.719, 800.780 549.423, 792.500 553.639 M 536.536 555.960 C 532.865 560.017, 537.560 566.433, 542.540 564.164 C 545.676 562.735, 546.533 559.462, 544.560 556.451 C 542.609 553.474, 538.987 553.252, 536.536 555.960 M 1056.750 555.080 C 1054.948 556.130, 1054.408 560.519, 1055.809 562.725 C 1056.574 563.929, 1058.950 564.471, 1062.089 564.158 C 1062.964 564.071, 1064.217 562.820, 1064.874 561.377 C 1067.192 556.289, 1061.821 552.126, 1056.750 555.080 M 772.299 611.057 C 765.350 613.174, 765.568 613.563, 787.439 638.104 C 794.006 645.472, 799.495 651.664, 799.637 651.864 C 800.233 652.706, 829.894 619.327, 831.309 616.222 C 832.968 612.581, 830.287 610.700, 823.306 610.605 C 818.884 610.546, 816.606 611.080, 813.750 612.845 C 810.432 614.896, 810 615.622, 810 619.147 C 810 629.326, 801.494 635.323, 794.669 629.955 C 792.024 627.874, 790.016 622.653, 790.006 617.832 C 789.995 612.704, 779.753 608.786, 772.299 611.057 M 513.556 615.910 C 512.721 617.261, 514.022 620, 515.500 620 C 516.978 620, 518.279 617.261, 517.444 615.910 C 517.135 615.409, 516.260 615, 515.500 615 C 514.740 615, 513.865 615.409, 513.556 615.910 M 1082.351 616.527 C 1081.983 617.488, 1082.304 618.578, 1083.104 619.085 C 1085.086 620.338, 1086.500 619.649, 1086.500 617.430 C 1086.500 615.015, 1083.207 614.298, 1082.351 616.527 M 783.250 688.825 C 776.513 690.268, 771 691.726, 771 692.065 C 771 693.168, 780.360 697.769, 785.932 699.405 C 792.684 701.388, 806.662 701.466, 813.821 699.560 C 819.952 697.928, 828.270 693.974, 828.711 692.482 C 829.063 691.291, 804.152 685.935, 799 686.094 C 797.075 686.154, 789.987 687.383, 783.250 688.825 M 638.655 691.829 C 636.771 693.911, 636.411 696.482, 638.155 695.405 C 638.885 694.953, 639.037 695.131, 638.568 695.889 C 637.533 697.565, 639.815 700, 642.422 700 C 645.326 700, 647 698.171, 647 695 C 647 690.120, 641.941 688.198, 638.655 691.829 M 954.200 691.200 C 952.546 692.854, 952.693 697.500, 954.445 698.954 C 956.679 700.809, 960.275 699.783, 961.933 696.818 C 963.303 694.370, 963.271 693.957, 961.562 692.068 C 959.481 689.769, 956.037 689.363, 954.200 691.200" stroke="none" fill="#101114" fill-rule="evenodd"/><path d="M 0 448.001 L 0 896.001 800.250 895.751 L 1600.500 895.500 1600.751 447.750 L 1601.002 0 800.501 0 L 0 0 0 448.001 M 0.496 448.500 C 0.496 694.900, 0.610 795.551, 0.750 672.168 C 0.890 548.786, 0.890 347.186, 0.750 224.168 C 0.610 101.151, 0.496 202.100, 0.496 448.500 M 580.500 178.106 C 551.731 183.813, 526.607 200.204, 509.113 224.676 C 494.665 244.888, 487.674 267.149, 487.657 293 C 487.643 314.176, 492.004 331.872, 501.688 349.935 C 507.938 361.592, 512.823 368.020, 523.408 378.512 C 531.529 386.561, 546.429 398.026, 547.335 396.923 C 548.488 395.519, 556 381.081, 556 380.268 C 556 379.727, 553.413 377.574, 550.250 375.484 C 536.520 366.414, 521.440 348.293, 514.972 333.094 C 508.794 318.575, 507.540 311.999, 507.519 294 C 507.504 281.019, 507.906 275.901, 509.405 270 C 513.790 252.732, 522.230 237.709, 534.887 224.640 C 550.564 208.454, 569.185 199.372, 591.290 197.131 C 607.205 195.518, 623.217 198.228, 637.673 204.981 C 648.318 209.953, 653.881 213.811, 662.838 222.435 C 678.119 237.148, 685.375 250.846, 690.551 274.750 C 690.819 275.988, 691.378 277, 691.794 277 C 692.210 277, 695.866 273.662, 699.919 269.581 C 708.530 260.913, 708.527 260.938, 702.600 246.401 C 691.914 220.189, 667.832 195.604, 642.534 185.081 C 628.332 179.173, 620.977 177.766, 602.500 177.427 C 593.150 177.255, 583.250 177.561, 580.500 178.106 M 978 178.948 C 940.335 186.954, 907.727 215.982, 895.507 252.383 C 894.128 256.491, 893 260.234, 893 260.700 C 893 261.534, 908.933 278.540, 909.070 277.853 C 914.011 253.088, 921.300 238.610, 936.455 223.455 C 961.609 198.300, 997.478 190.175, 1031.400 201.948 C 1053.801 209.722, 1075.737 230.685, 1085.337 253.492 C 1098.987 285.922, 1095.504 321.139, 1075.826 349.678 C 1069.205 359.280, 1058.773 369.725, 1050.387 375.148 C 1046.874 377.420, 1044 379.604, 1044 380.001 C 1044 380.863, 1051.798 395.181, 1052.841 396.234 C 1054.250 397.656, 1067.614 387.584, 1077.567 377.599 C 1088.226 366.907, 1094.949 357.607, 1101.045 345.123 C 1114.545 317.474, 1116.704 284.805, 1106.954 255.703 C 1102.931 243.697, 1099.798 237.324, 1092.698 226.709 C 1076 201.745, 1049.531 183.972, 1020.989 178.557 C 1009.727 176.421, 989.001 176.609, 978 178.948 M 586.075 215.087 C 557.156 220.761, 533.887 243.186, 525.814 273.162 C 522.694 284.749, 522.704 302.043, 525.839 313.830 C 534.009 344.543, 561.646 369.590, 590.718 372.628 L 596.518 373.235 605.252 364.033 C 610.056 358.972, 614.195 354.493, 614.450 354.081 C 614.704 353.669, 610.317 353.536, 604.700 353.786 C 586.175 354.610, 573.518 349.665, 560.493 336.514 C 548.771 324.679, 543.442 313.062, 542.369 297 C 541.645 286.166, 543.649 276.393, 548.698 266.135 C 553.756 255.857, 565.642 243.776, 575.268 239.126 C 613.988 220.424, 656.880 249.276, 656.983 294.093 C 657.002 302.427, 659.060 309.755, 663.702 318.012 L 666.500 322.989 633.250 356.250 L 600 389.511 600 458.784 L 600 528.057 637.500 546.454 C 658.125 556.572, 675 565.067, 675 565.332 C 675 565.596, 674.212 565.631, 673.250 565.408 C 668.004 564.194, 607.417 559.848, 582.210 558.876 C 555.386 557.843, 550.618 557.951, 552.225 559.558 C 552.531 559.865, 563.294 560.984, 576.141 562.046 C 607.521 564.638, 626.169 566.651, 646.442 569.632 C 662.320 571.968, 681.945 575.612, 682.698 576.364 C 682.882 576.549, 682.532 580.065, 681.920 584.179 L 680.808 591.659 665.654 592.914 C 646.258 594.520, 605.322 599.308, 587.958 602.003 C 571.492 604.558, 526.439 613.479, 523 614.865 L 520.500 615.873 523.500 615.936 C 525.150 615.971, 529.921 615.345, 534.102 614.545 C 571.525 607.384, 633.975 601, 666.604 601 L 680.742 601 681.393 606.250 C 681.751 609.138, 682.303 613.367, 682.620 615.649 C 683.184 619.703, 683.120 619.814, 679.848 620.521 C 672.996 622.001, 642.983 632.400, 627.838 638.542 C 604.474 648.018, 563.102 668.231, 549.504 676.814 C 544.205 680.158, 546.790 680.899, 552.362 677.634 C 559.656 673.359, 590.640 659.146, 606.500 652.799 C 631.900 642.635, 676.029 629.001, 683.532 629 C 685.154 629, 686.281 630.786, 689.118 637.854 L 692.672 646.708 684.618 652.604 C 674.914 659.708, 646.537 687.111, 647.109 688.826 C 647.350 689.549, 650.640 687.446, 655.211 683.646 C 671.294 670.274, 693.735 654.945, 697.088 655.040 C 697.864 655.062, 700.525 657.825, 703 661.180 C 712.080 673.488, 727.083 684.289, 743.885 690.615 C 749.881 692.872, 752.966 694.660, 754.710 696.888 C 757.769 700.797, 768.208 708.303, 774.095 710.826 C 797.492 720.855, 826.457 715.891, 843.046 699.009 C 847.777 694.195, 849.832 692.934, 857.019 690.433 C 873.229 684.791, 888.813 673.070, 900.109 658.025 C 902.579 654.735, 902.867 654.618, 905.535 655.834 C 910.711 658.192, 930.376 671.730, 941.325 680.473 C 947.279 685.227, 952.591 688.970, 953.129 688.790 C 954.679 688.274, 929.380 663.137, 920.107 655.979 C 915.490 652.416, 910.778 648.762, 909.634 647.860 L 907.555 646.221 909.744 641.360 C 910.948 638.687, 912.621 634.761, 913.463 632.636 L 914.993 628.772 919.603 629.463 C 925.453 630.340, 934.944 632.829, 951.912 637.935 C 977.876 645.748, 1005.122 656.648, 1034.887 671.129 C 1045 676.049, 1053.756 679.915, 1054.345 679.718 C 1057.093 678.802, 1007.283 653.353, 979.937 641.702 C 961.139 633.693, 949.597 629.413, 930 623.184 C 917.610 619.246, 917.503 619.185, 917.833 616.355 C 918.015 614.785, 918.465 610.800, 918.833 607.500 L 919.500 601.500 931 601.177 C 958.621 600.402, 1007.177 604.910, 1053.905 612.587 C 1094.886 619.319, 1082.863 614.861, 1037.500 606.504 C 1004.377 600.402, 969.423 595.780, 934.657 592.906 C 925.786 592.172, 919.697 591.240, 919.524 590.589 C 918.999 588.617, 917.259 576.505, 917.464 576.251 C 917.811 575.821, 944.021 571.170, 955 569.590 C 977.681 566.328, 1011.748 562.708, 1031 561.515 C 1036.225 561.191, 1042.507 560.676, 1044.960 560.370 C 1048.714 559.902, 1049.125 559.649, 1047.556 558.771 C 1044.211 556.899, 991.552 559.493, 944.750 563.836 C 934.438 564.792, 926.004 565.333, 926.009 565.038 C 926.019 564.450, 996.376 529.702, 998.620 529.177 C 999.778 528.905, 999.994 517.624, 999.963 459.177 L 999.927 389.500 976.820 366 C 964.111 353.075, 949.253 337.934, 943.802 332.353 L 933.891 322.207 936.859 317.353 C 941.042 310.511, 942.766 304.029, 943.467 292.500 C 944.615 273.627, 949.581 261.671, 961.108 250.029 C 969.410 241.645, 978.849 236.654, 990.897 234.281 C 1010.081 230.501, 1030.633 238.144, 1043.662 253.902 C 1054.118 266.548, 1058.549 279.830, 1057.708 296 C 1057.419 301.560, 1056.351 308.196, 1055.134 312 C 1050.272 327.186, 1038.635 341.055, 1025.046 347.857 C 1014.747 353.012, 1008.024 354.352, 995.305 353.786 L 985.087 353.332 993.029 362.031 C 997.397 366.816, 1001.690 371.327, 1002.568 372.057 C 1005.011 374.084, 1018.521 371.777, 1027.864 367.738 C 1070.499 349.305, 1089.037 299.240, 1068.618 257.675 C 1060.402 240.950, 1048.681 229.198, 1032.439 221.402 C 1021.621 216.208, 1011.948 213.994, 1000.185 214.017 C 988.333 214.041, 979.168 216.171, 968.500 221.382 C 942.327 234.166, 926.619 258.432, 925.375 288 C 924.961 297.842, 924.112 304.109, 922.428 309.766 C 922.220 310.462, 911.153 299.999, 897.833 286.516 L 873.615 262 800.435 262 L 727.254 262 702.950 286.489 C 689.582 299.959, 678.493 310.827, 678.307 310.641 C 676.893 309.226, 674.999 297.262, 674.993 289.701 C 674.976 267.714, 666.909 249.584, 650.170 233.915 C 635.746 220.413, 618.925 213.865, 599.292 214.110 C 594.456 214.170, 588.509 214.610, 586.075 215.087 M 720.682 297.818 L 705.888 312.636 708.002 323.068 C 715.707 361.083, 716.776 364.871, 723.939 379.500 C 730.538 392.976, 749.882 427.990, 754.414 434.658 L 756.607 437.887 774.304 419.522 L 792 401.158 792 342.079 L 792 283 763.737 283 L 735.475 283 720.682 297.818 M 808 342.103 L 808 401.206 825.750 419.442 C 843.109 437.275, 843.537 437.632, 845.165 435.625 C 849.914 429.774, 876.789 379.997, 881.332 368.638 C 883.628 362.896, 892.338 326.110, 893.626 316.710 L 894.207 312.473 879.381 297.736 L 864.554 283 836.277 283 L 808 283 808 342.103 M 670.677 347.823 C 649.529 368.981, 643.183 375.884, 644.184 376.643 C 645.607 377.722, 655.939 383.839, 694 406.133 C 707.475 414.026, 720.258 422.063, 722.407 423.992 C 727.575 428.632, 730.978 436.042, 730.990 442.684 C 730.998 446.771, 731.680 448.961, 734.216 453.040 L 737.431 458.213 744.188 451.014 L 750.944 443.815 745.619 436.157 C 730.472 414.381, 724.425 404.118, 716.360 386.500 C 712.401 377.852, 710.776 371.878, 702.010 333.750 C 700.271 326.188, 698.767 320, 698.668 320 C 698.568 320, 685.972 332.520, 670.677 347.823 M 901.590 320.874 C 901.383 321.218, 898.654 332.525, 895.525 346 C 888.630 375.697, 887.976 377.854, 882.045 390.523 C 875.072 405.418, 865.661 421.185, 854.815 436.140 C 852.167 439.792, 850 443.180, 850 443.669 C 850 444.767, 862.811 457.559, 863.295 456.944 C 866.066 453.422, 868.827 446.424, 869.288 441.755 C 869.952 435.023, 873.056 428.287, 877.404 424.144 C 879.107 422.521, 888.375 416.604, 898 410.994 C 957.448 376.346, 956.978 376.627, 956.719 375.796 C 956.281 374.388, 901.954 320.266, 901.590 320.874 M 937.454 402.312 C 912.740 416.552, 908.041 419.607, 909.524 420.467 C 920.393 426.761, 925.572 440.739, 921.537 452.888 C 919.691 458.445, 913.395 465.710, 908.013 468.493 C 899.962 472.657, 888.140 471.280, 880.254 465.260 C 877.806 463.392, 875.701 462.006, 875.575 462.182 C 875.450 462.357, 874.378 464.114, 873.194 466.086 L 871.040 469.672 876.270 492.094 L 881.500 514.517 889.402 523.509 C 897.519 532.744, 905.622 544.258, 907.935 549.843 C 908.654 551.579, 909.555 553, 909.936 553 C 910.318 553, 911.685 550.013, 912.973 546.363 C 914.839 541.078, 917.173 537.564, 924.433 529.113 C 936.267 515.336, 964.618 481.985, 973.250 471.687 L 980 463.633 979.972 431.067 L 979.945 398.500 973.556 391.845 L 967.167 385.190 937.454 402.312 M 626.221 392.277 L 620 398.554 620 430.924 L 620 463.294 627.728 472.397 C 631.978 477.404, 644.706 492.300, 656.012 505.500 C 685.851 540.338, 684.404 538.293, 689.594 552.986 C 689.929 553.937, 691.275 552.314, 693.328 548.486 C 698.318 539.177, 703.502 531.811, 711.497 522.666 L 718.851 514.254 723.925 492.719 C 726.716 480.875, 729 470.686, 729 470.078 C 729 469.470, 728.008 467.459, 726.796 465.610 L 724.592 462.247 719.723 465.597 C 711.028 471.578, 702.005 472.613, 693.419 468.614 C 674.340 459.731, 671.496 435.039, 688.112 422.541 C 690.256 420.928, 691.670 419.284, 691.255 418.887 C 689.684 417.385, 634.624 386, 633.559 386 C 632.945 386, 629.643 388.825, 626.221 392.277 M 566.607 395.534 C 564.465 400.216, 562.890 404.211, 563.107 404.412 C 563.706 404.968, 582.879 411, 584.047 411 C 584.696 411, 584.966 407.257, 584.785 400.752 L 584.500 390.505 581 389.386 C 579.075 388.771, 575.925 387.987, 574 387.645 L 570.500 387.022 566.607 395.534 M 1022.373 388.476 C 1019.552 389.166, 1016.740 390.043, 1016.123 390.424 C 1014.773 391.258, 1014.548 411, 1015.888 411 C 1017.420 411, 1034.159 405.985, 1036.106 404.943 C 1037.845 404.013, 1037.698 403.420, 1033.758 395.475 C 1031.446 390.814, 1029.092 387.050, 1028.527 387.111 C 1027.962 387.171, 1025.193 387.786, 1022.373 388.476 M 787.976 426.750 C 781.655 433.212, 773.842 441.271, 770.615 444.657 L 764.747 450.814 772.739 469.157 C 777.134 479.246, 784.953 497.733, 790.115 510.240 C 795.277 522.747, 799.739 532.984, 800.031 532.990 C 800.323 532.995, 801.051 531.763, 801.649 530.250 C 805.567 520.343, 831.358 460.228, 833.526 455.949 L 836.184 450.704 818.352 432.852 C 808.545 423.033, 800.284 415, 799.995 415 C 799.705 415, 794.297 420.288, 787.976 426.750 M 752.761 463.413 L 746.022 470.820 747.453 480.160 C 748.240 485.297, 750.938 503, 753.448 519.500 C 759.212 557.386, 759.428 558.542, 760.683 558.296 C 761.461 558.144, 792.678 539.033, 794.881 537.361 C 795.660 536.770, 774.714 487.826, 764.877 467.253 L 759.500 456.006 752.761 463.413 M 832.730 473.250 C 826.195 487.287, 805 535.701, 805 536.591 C 805 537.572, 839.993 559.340, 840.598 558.736 C 840.760 558.573, 843.905 538.559, 847.585 514.259 L 854.276 470.079 847.962 463.539 C 844.490 459.943, 841.344 457, 840.972 457 C 840.599 457, 836.891 464.313, 832.730 473.250 M 620.032 501.297 L 620 520.095 648.655 534.058 C 664.416 541.739, 677.484 547.849, 677.696 547.637 C 677.908 547.426, 672.775 541.431, 666.290 534.317 C 656.354 523.416, 632.045 496.200, 622.687 485.500 L 620.063 482.500 620.032 501.297 M 970.500 493.691 C 965.550 499.167, 955.650 510.364, 948.500 518.573 C 941.350 526.783, 932.643 536.567, 929.150 540.317 C 925.658 544.066, 923.012 547.346, 923.271 547.605 C 923.531 547.864, 934.263 542.858, 947.121 536.480 C 979.920 520.212, 979.160 520.611, 979.627 519.465 C 979.859 518.896, 979.926 510.624, 979.775 501.083 L 979.500 483.736 970.500 493.691 M 861.655 510.500 C 849.960 587.579, 846.776 608.638, 845.857 615 C 845.262 619.125, 844.126 623.534, 843.333 624.797 C 842.540 626.061, 834.266 635.669, 824.946 646.148 C 809.234 663.814, 808 665.483, 808 669.062 C 808 673.601, 807.811 673.525, 827.994 677.106 C 838.707 679.007, 841.406 679.165, 846.937 678.218 C 854.687 676.890, 865.428 671.717, 873.180 665.579 C 879.593 660.500, 889.283 649.350, 888.729 647.687 C 888.528 647.084, 884.569 645.324, 879.932 643.775 C 869.169 640.182, 865.706 636.437, 869.571 632.571 C 871.967 630.176, 875.729 630.682, 884.500 634.579 C 888.900 636.534, 893.065 638.378, 893.757 638.677 C 894.993 639.210, 900 629.515, 900 626.587 C 900 625.276, 894.865 624.255, 879 622.410 C 872.209 621.620, 869 619.739, 869 616.548 C 869 613.226, 871.541 610.998, 875.321 611.008 C 877.070 611.012, 883.875 612.134, 890.445 613.501 C 898.819 615.243, 902.593 615.659, 903.068 614.891 C 903.763 613.766, 905.314 600.883, 904.791 600.579 C 904.631 600.486, 897.750 600.706, 889.500 601.069 C 880.020 601.486, 873.679 601.355, 872.269 600.713 C 868.119 598.822, 868.140 592.757, 872.301 591.368 C 873.511 590.965, 881.362 590.740, 889.750 590.870 L 905 591.106 904.974 588.303 C 904.946 585.205, 901.484 569.151, 900.669 568.336 C 900.386 568.053, 896.857 569.821, 892.827 572.266 C 877.540 581.539, 872.197 583.105, 869.980 578.962 C 867.837 574.958, 869.733 573.148, 883.077 566.461 C 891.203 562.389, 896 559.417, 896 558.453 C 896 554.420, 887.410 541.863, 875.460 528.426 C 868.645 520.764, 868.192 519.947, 866.576 512.426 C 863.577 498.469, 863.486 498.433, 861.655 510.500 M 734.144 510.792 C 731.934 520.690, 731.777 520.999, 725.321 528.184 C 721.706 532.208, 717.263 537.306, 715.448 539.513 C 711.717 544.050, 704 556.895, 704 558.570 C 704 559.176, 709.288 562.293, 715.750 565.498 C 722.212 568.703, 728.288 571.997, 729.250 572.818 C 733.627 576.550, 729.056 583.113, 723.540 581.015 C 721.104 580.089, 712.372 575.257, 703.255 569.789 L 700.010 567.843 698.924 570.672 C 697.980 573.131, 695.005 588.032, 695.001 590.323 C 695.001 590.776, 702.354 591.001, 711.343 590.823 C 729.684 590.461, 731.336 590.935, 730.801 596.408 C 730.325 601.277, 727.721 601.888, 711 601.050 C 703.025 600.650, 696.190 600.588, 695.811 600.911 C 695.128 601.494, 696.431 614.765, 697.251 615.585 C 697.485 615.818, 703.211 614.883, 709.976 613.505 C 727.962 609.842, 731 610.209, 731 616.045 C 731 619.862, 728.323 621.646, 721.500 622.377 C 706.955 623.936, 700 625.266, 700 626.491 C 700 627.901, 704.757 639, 705.361 639 C 705.574 639, 709.865 637.172, 714.898 634.938 C 725.701 630.143, 729.925 629.959, 731.414 634.220 C 732.808 638.207, 730.253 640.426, 720.635 643.581 C 716.161 645.048, 712.153 646.562, 711.729 646.945 C 709.705 648.775, 722.998 663.149, 732.622 669.537 C 747.012 679.088, 754.207 680.230, 775.874 676.398 L 791.831 673.577 792.279 670.038 C 792.526 668.092, 792.451 665.988, 792.114 665.362 C 791.776 664.736, 784.943 656.861, 776.928 647.862 C 768.913 638.863, 760.932 629.873, 759.192 627.885 C 756.062 624.307, 755.972 623.896, 750.593 588.885 C 747.603 569.423, 743.514 542.475, 741.507 529 C 739.501 515.525, 737.529 503.649, 737.126 502.608 C 736.618 501.296, 735.705 503.804, 734.144 510.792 M 792.500 553.639 C 787.041 556.419, 769.352 566.168, 764.401 569.125 L 761.302 570.977 763.151 583.238 C 765.934 601.686, 765.252 600.247, 770.783 599.332 C 780.717 597.689, 790.186 599.616, 796.740 604.615 L 800.117 607.191 803.808 604.642 C 811.825 599.106, 820.648 597.338, 830.500 599.294 L 834.500 600.088 836.728 585.355 C 837.953 577.252, 838.853 570.567, 838.728 570.499 C 838.603 570.431, 832.355 566.913, 824.845 562.681 C 801.840 549.719, 800.780 549.423, 792.500 553.639 M 536.536 555.960 C 532.865 560.017, 537.560 566.433, 542.540 564.164 C 545.676 562.735, 546.533 559.462, 544.560 556.451 C 542.609 553.474, 538.987 553.252, 536.536 555.960 M 1056.750 555.080 C 1054.948 556.130, 1054.408 560.519, 1055.809 562.725 C 1056.574 563.929, 1058.950 564.471, 1062.089 564.158 C 1062.964 564.071, 1064.217 562.820, 1064.874 561.377 C 1067.192 556.289, 1061.821 552.126, 1056.750 555.080 M 772.299 611.057 C 765.350 613.174, 765.568 613.563, 787.439 638.104 C 794.006 645.472, 799.495 651.664, 799.637 651.864 C 800.233 652.706, 829.894 619.327, 831.309 616.222 C 832.968 612.581, 830.287 610.700, 823.306 610.605 C 818.884 610.546, 816.606 611.080, 813.750 612.845 C 810.432 614.896, 810 615.622, 810 619.147 C 810 629.326, 801.494 635.323, 794.669 629.955 C 792.024 627.874, 790.016 622.653, 790.006 617.832 C 789.995 612.704, 779.753 608.786, 772.299 611.057 M 513.556 615.910 C 512.721 617.261, 514.022 620, 515.500 620 C 516.978 620, 518.279 617.261, 517.444 615.910 C 517.135 615.409, 516.260 615, 515.500 615 C 514.740 615, 513.865 615.409, 513.556 615.910 M 1082.351 616.527 C 1081.983 617.488, 1082.304 618.578, 1083.104 619.085 C 1085.086 620.338, 1086.500 619.649, 1086.500 617.430 C 1086.500 615.015, 1083.207 614.298, 1082.351 616.527 M 783.250 688.825 C 776.513 690.268, 771 691.726, 771 692.065 C 771 693.168, 780.360 697.769, 785.932 699.405 C 792.684 701.388, 806.662 701.466, 813.821 699.560 C 819.952 697.928, 828.270 693.974, 828.711 692.482 C 829.063 691.291, 804.152 685.935, 799 686.094 C 797.075 686.154, 789.987 687.383, 783.250 688.825 M 638.655 691.829 C 636.771 693.911, 636.411 696.482, 638.155 695.405 C 638.885 694.953, 639.037 695.131, 638.568 695.889 C 637.533 697.565, 639.815 700, 642.422 700 C 645.326 700, 647 698.171, 647 695 C 647 690.120, 641.941 688.198, 638.655 691.829 M 954.200 691.200 C 952.546 692.854, 952.693 697.500, 954.445 698.954 C 956.679 700.809, 960.275 699.783, 961.933 696.818 C 963.303 694.370, 963.271 693.957, 961.562 692.068 C 959.481 689.769, 956.037 689.363, 954.200 691.200" stroke="none" fill="#fbfbfb" fill-rule="evenodd"/></svg>